<?xml version="1.0" encoding="UTF-8"?>
<svg width="1016px" height="290px" viewBox="0 0 1016 290" version="1.1" xmlns="http://www.w3.org/2000/svg" xmlns:xlink="http://www.w3.org/1999/xlink">
    <!-- Generator: Sketch 59.1 (86144) - https://sketch.com -->
    <title>logo_new outlines</title>
    <desc>Created with Sketch.</desc>
    <defs>
        <path d="M286.529297,207 L286.529297,127.546875 L260.953125,127.546875 L260.953125,111.902344 L286.529297,111.902344 L286.529297,106.013672 C286.529297,99.8612974 287.452139,94.4267814 289.297852,89.7099609 C291.143564,84.9931405 293.809553,81.0381019 297.295898,77.8447266 C300.782244,74.6513512 304.986304,72.2197349 309.908203,70.5498047 C314.830103,68.8798745 320.367157,68.0449219 326.519531,68.0449219 C330.56252,68.0449219 334.415021,68.352536 338.077148,68.9677734 C341.739276,69.5830109 345.56248,70.3007771 349.546875,71.1210938 L347.701172,87.8203125 C345.416004,87.175778 342.750015,86.6044947 339.703125,86.1064453 C336.656235,85.6083959 333.228535,85.359375 329.419922,85.359375 C321.86129,85.359375 316.338885,87.1464665 312.852539,90.7207031 C309.366194,94.2949397 307.623047,99.392545 307.623047,106.013672 L307.623047,111.902344 L342.955078,111.902344 L342.955078,127.546875 L307.623047,127.546875 L307.623047,207 L286.529297,207 Z M374.507812,72 L425.923828,72 L425.923828,189.597656 L454.927734,189.597656 L454.927734,207 L374.507812,207 L374.507812,189.597656 L404.742188,189.597656 L404.742188,89.4902344 L374.507812,89.4902344 L374.507812,72 Z M539.654297,193.992188 C536.431625,198.679711 532.520531,202.327135 527.920898,204.93457 C523.321266,207.542005 518.179716,208.845703 512.496094,208.845703 C507.574194,208.845703 503.077169,208.083992 499.004883,206.560547 C494.932597,205.037102 491.446304,202.620134 488.545898,199.30957 C485.645493,195.999007 483.389656,191.780299 481.77832,186.65332 C480.166984,181.526342 479.361328,175.359411 479.361328,168.152344 L479.361328,111.902344 L500.367188,111.902344 L500.367188,168.328125 C500.367188,172.89846 500.704098,176.677719 501.37793,179.666016 C502.051761,182.654312 503.09179,185.027335 504.498047,186.785156 C505.904304,188.542978 507.662099,189.788082 509.771484,190.520508 C511.88087,191.252933 514.400376,191.619141 517.330078,191.619141 C522.955106,191.619141 527.496076,190.520519 530.953125,188.323242 C534.410174,186.125966 537.017569,183.152362 538.775391,179.402344 L538.775391,111.902344 L559.869141,111.902344 L559.869141,207 L540.884766,207 L539.654297,193.992188 Z M630.972656,208.757812 C623.941371,208.757812 617.52542,207.585949 611.724609,205.242188 C605.923799,202.898426 600.958028,199.675802 596.827148,195.574219 C592.696268,191.472636 589.488293,186.624051 587.203125,181.02832 C584.917957,175.432589 583.775391,169.382845 583.775391,162.878906 L583.775391,159.275391 C583.775391,151.716759 584.991199,144.919952 587.422852,138.884766 C589.854504,132.849579 593.106425,127.693381 597.178711,123.416016 C601.250997,119.13865 605.997043,115.857433 611.416992,113.572266 C616.836941,111.287098 622.535126,110.144531 628.511719,110.144531 C635.425816,110.144531 641.519505,111.301746 646.792969,113.616211 C652.066433,115.930676 656.475568,119.182596 660.020508,123.37207 C663.565447,127.561544 666.246085,132.527315 668.0625,138.269531 C669.878915,144.011747 670.787109,150.310513 670.787109,157.166016 L670.787109,166.042969 L604.869141,166.042969 C605.220705,169.734393 606.128899,173.162094 607.59375,176.326172 C609.058601,179.49025 610.977527,182.229481 613.350586,184.543945 C615.723645,186.85841 618.50682,188.674798 621.700195,189.993164 C624.893571,191.31153 628.394512,191.970703 632.203125,191.970703 C637.535183,191.970703 642.44236,190.916026 646.924805,188.806641 C651.407249,186.697255 655.054673,183.796893 657.867188,180.105469 L669.292969,190.828125 C667.769524,193.113293 665.806653,195.325185 663.404297,197.463867 C661.001941,199.60255 658.189469,201.506828 654.966797,203.176758 C651.744125,204.846688 648.125997,206.194331 644.112305,207.219727 C640.098613,208.245122 635.718774,208.757812 630.972656,208.757812 Z M628.423828,127.107422 C625.494126,127.107422 622.769544,127.63476 620.25,128.689453 C617.730456,129.744146 615.474619,131.282216 613.482422,133.303711 C611.490224,135.325205 609.805671,137.786118 608.428711,140.686523 C607.051751,143.586929 606.070315,146.882794 605.484375,150.574219 L650.044922,150.574219 L650.044922,148.992188 C649.86914,146.179673 649.327153,143.46974 648.418945,140.862305 C647.510738,138.25487 646.177743,135.925792 644.419922,133.875 C642.662101,131.824208 640.450209,130.1836 637.78418,128.953125 C635.118151,127.72265 631.998065,127.107422 628.423828,127.107422 Z M713.677734,111.902344 L714.996094,125.085938 C718.453142,120.33982 722.627905,116.663099 727.520508,114.055664 C732.41311,111.448229 737.847626,110.144531 743.824219,110.144531 C748.687524,110.144531 753.125956,110.847649 757.139648,112.253906 C761.15334,113.660163 764.610337,115.857407 767.510742,118.845703 C770.411147,121.833999 772.666984,125.701148 774.27832,130.447266 C775.889656,135.193383 776.695312,140.906217 776.695312,147.585938 L776.695312,207 L755.689453,207 L755.689453,147.9375 C755.689453,144.011699 755.235356,140.730482 754.327148,138.09375 C753.418941,135.457018 752.129891,133.347664 750.459961,131.765625 C748.790031,130.183586 746.753918,129.055667 744.351562,128.381836 C741.949207,127.708004 739.224625,127.371094 736.177734,127.371094 C731.548805,127.371094 727.520525,128.396474 724.092773,130.447266 C720.665022,132.498057 717.896495,135.281232 715.787109,138.796875 L715.787109,207 L694.693359,207 L694.693359,111.902344 L713.677734,111.902344 Z M844.283203,192.058594 C846.861341,192.058594 849.366199,191.648442 851.797852,190.828125 C854.229504,190.007808 856.382803,188.865242 858.257812,187.400391 C860.132822,185.93554 861.612299,184.207041 862.696289,182.214844 C863.780279,180.222646 864.292969,178.054699 864.234375,175.710938 L884.097656,175.710938 C884.15625,180.281273 883.116222,184.573222 880.977539,188.586914 C878.838856,192.600606 875.938495,196.101548 872.276367,199.089844 C868.61424,202.07814 864.380883,204.451163 859.576172,206.208984 C854.77146,207.966806 849.732448,208.845703 844.458984,208.845703 C837.134729,208.845703 830.718778,207.58595 825.210938,205.066406 C819.703097,202.546862 815.103534,199.104514 811.412109,194.739258 C807.720685,190.374002 804.952158,185.305693 803.106445,179.53418 C801.260733,173.762666 800.337891,167.625033 800.337891,161.121094 L800.337891,157.957031 C800.337891,151.453092 801.260733,145.30081 803.106445,139.5 C804.952158,133.69919 807.720685,128.630881 811.412109,124.294922 C815.103534,119.958963 819.703097,116.516614 825.210938,113.967773 C830.718778,111.418933 837.105432,110.144531 844.371094,110.144531 C850.11331,110.144531 855.43064,111.023429 860.323242,112.78125 C865.215845,114.539071 869.434553,116.999984 872.979492,120.164062 C876.524432,123.328141 879.27831,127.1074 881.241211,131.501953 C883.204111,135.896506 884.15625,140.701146 884.097656,145.916016 L864.234375,145.916016 C864.292969,143.337878 863.838872,140.906261 862.87207,138.621094 C861.905269,136.335926 860.513681,134.343758 858.697266,132.644531 C856.88085,130.945304 854.7422,129.597661 852.28125,128.601562 C849.8203,127.605464 847.125015,127.107422 844.195312,127.107422 C839.800759,127.107422 836.138687,128.000968 833.208984,129.788086 C830.279282,131.575204 827.935556,133.918931 826.177734,136.819336 C824.419913,139.719741 823.174808,143.015607 822.442383,146.707031 C821.709957,150.398456 821.34375,154.148418 821.34375,157.957031 L821.34375,161.121094 C821.34375,164.988301 821.709957,168.76756 822.442383,172.458984 C823.174808,176.150409 824.419913,179.446275 826.177734,182.34668 C827.935556,185.247085 830.279282,187.590811 833.208984,189.37793 C836.138687,191.165048 839.830056,192.058594 844.283203,192.058594 Z M955.025391,208.757812 C947.994105,208.757812 941.578154,207.585949 935.777344,205.242188 C929.976533,202.898426 925.010763,199.675802 920.879883,195.574219 C916.749003,191.472636 913.541027,186.624051 911.255859,181.02832 C908.970692,175.432589 907.828125,169.382845 907.828125,162.878906 L907.828125,159.275391 C907.828125,151.716759 909.043933,144.919952 911.475586,138.884766 C913.907239,132.849579 917.159159,127.693381 921.231445,123.416016 C925.303731,119.13865 930.049778,115.857433 935.469727,113.572266 C940.889676,111.287098 946.587861,110.144531 952.564453,110.144531 C959.47855,110.144531 965.572239,111.301746 970.845703,113.616211 C976.119167,115.930676 980.528303,119.182596 984.073242,123.37207 C987.618182,127.561544 990.298819,132.527315 992.115234,138.269531 C993.93165,144.011747 994.839844,150.310513 994.839844,157.166016 L994.839844,166.042969 L928.921875,166.042969 C929.273439,169.734393 930.181633,173.162094 931.646484,176.326172 C933.111335,179.49025 935.030262,182.229481 937.40332,184.543945 C939.776379,186.85841 942.559554,188.674798 945.75293,189.993164 C948.946305,191.31153 952.447247,191.970703 956.255859,191.970703 C961.587917,191.970703 966.495095,190.916026 970.977539,188.806641 C975.459983,186.697255 979.107408,183.796893 981.919922,180.105469 L993.345703,190.828125 C991.822258,193.113293 989.859387,195.325185 987.457031,197.463867 C985.054675,199.60255 982.242204,201.506828 979.019531,203.176758 C975.796859,204.846688 972.178731,206.194331 968.165039,207.219727 C964.151347,208.245122 959.771508,208.757812 955.025391,208.757812 Z M951.939453,127 C949.009751,127 946.285169,127.527338 943.765625,128.582031 C941.246081,129.636724 938.990244,131.174795 936.998047,133.196289 C935.005849,135.217784 933.321296,137.678696 931.944336,140.579102 C930.567376,143.479507 929.58594,146.775372 929,150.466797 L973.560547,150.466797 L973.560547,148.884766 C973.384765,146.072252 972.842778,143.362318 971.93457,140.754883 C971.026363,138.147448 969.693368,135.81837 967.935547,133.767578 C966.177726,131.716787 963.965834,130.076178 961.299805,128.845703 C958.633776,127.615228 955.51369,127 951.939453,127 Z" id="path-1"></path>
    </defs>
    <g id="logo_new-outlines" stroke="none" stroke-width="1" fill="none" fill-rule="evenodd">
        <g id="fluence" fill-rule="nonzero" fill="#E11E5A">
            <use xlink:href="#path-1"></use>
            <use xlink:href="#path-1"></use>
        </g>
        <path d="M108,53 C156.601058,53 196,92.398942 196,141 C196,189.601058 156.601058,229 108,229 C59.398942,229 20,189.601058 20,141 C20,92.398942 59.398942,53 108,53 Z M108,73 C70.444637,73 40,103.444637 40,141 C40,178.555363 70.444637,209 108,209 C145.555363,209 176,178.555363 176,141 C176,103.444637 145.555363,73 108,73 Z" id="Oval" fill="#E11E5A" fill-rule="nonzero"></path>
        <polygon id="Line" fill="#E11E5A" fill-rule="nonzero" points="118.5 9.5 98.5 9.5 98.5 272.5 118.5 272.5"></polygon>
    </g>
</svg>